<svg width="93" height="22" viewBox="0 0 93 22" fill="none" xmlns="http://www.w3.org/2000/svg">
<path d="M8.376 21.128C7.8 21.128 7.13867 21.096 6.392 21.032C6.09333 21.0107 5.74133 20.9893 5.336 20.968C4.93067 20.9467 4.472 20.936 3.96 20.936L1.784 20.968C1.42133 20.9893 0.930667 21 0.312 21C0.269333 21 0.237333 20.936 0.216 20.808C0.216 20.68 0.248 20.616 0.312 20.616C1.05867 20.616 1.61333 20.5627 1.976 20.456C2.33867 20.328 2.584 20.1147 2.712 19.816C2.86133 19.5173 2.92533 19.048 2.904 18.408V3.592C2.88267 2.952 2.808 2.48267 2.68 2.184C2.552 1.88533 2.30667 1.68266 1.944 1.576C1.60267 1.448 1.05867 1.384 0.312 1.384C0.269333 1.384 0.237333 1.32 0.216 1.192C0.216 1.064 0.248 1 0.312 1L1.816 1.032C2.66933 1.07467 3.37333 1.096 3.928 1.096C4.632 1.096 5.34667 1.064 6.072 1C6.968 0.957333 7.58667 0.935999 7.928 0.935999C10.04 0.935999 11.9173 1.36267 13.56 2.216C15.224 3.048 16.5147 4.21067 17.432 5.704C18.3493 7.176 18.808 8.82933 18.808 10.664C18.808 12.7333 18.328 14.568 17.368 16.168C16.4293 17.7467 15.16 18.9733 13.56 19.848C11.9813 20.7013 10.2533 21.128 8.376 21.128ZM8.056 20.68C9.69867 20.68 11.1493 20.3173 12.408 19.592C13.6667 18.8667 14.648 17.8107 15.352 16.424C16.056 15.016 16.408 13.3307 16.408 11.368C16.408 9.55467 16.0773 7.89067 15.416 6.376C14.7547 4.84 13.7947 3.624 12.536 2.728C11.2987 1.832 9.82667 1.384 8.12 1.384C6.904 1.384 6.072 1.53333 5.624 1.832C5.176 2.13067 4.952 2.73867 4.952 3.656V18.056C4.952 18.9947 5.16533 19.6667 5.592 20.072C6.01867 20.4773 6.84 20.68 8.056 20.68ZM40.6125 20.616C40.6765 20.616 40.7085 20.68 40.7085 20.808C40.7085 20.936 40.6765 21 40.6125 21C40.2498 21 39.7058 20.9787 38.9805 20.936C38.1272 20.8933 37.4658 20.872 36.9965 20.872C36.5272 20.872 35.9085 20.8933 35.1405 20.936C34.4578 20.9787 33.9352 21 33.5725 21C33.4872 21 33.4445 20.936 33.4445 20.808C33.4445 20.68 33.4872 20.616 33.5725 20.616C34.3405 20.616 34.8845 20.5413 35.2045 20.392C35.5245 20.2427 35.6845 19.9867 35.6845 19.624C35.6845 19.3467 35.5778 18.9093 35.3645 18.312L32.4845 10.44H27.1405L24.5485 16.776C24.1432 17.7787 23.9405 18.5573 23.9405 19.112C23.9405 19.688 24.1432 20.0827 24.5485 20.296C24.9752 20.5093 25.6045 20.616 26.4365 20.616C26.5218 20.616 26.5645 20.68 26.5645 20.808C26.5645 20.936 26.5112 21 26.4045 21C26.1485 21 25.6365 20.9787 24.8685 20.936C23.9725 20.8933 23.2898 20.872 22.8205 20.872C22.3085 20.872 21.7112 20.8933 21.0285 20.936C20.4312 20.9787 19.9405 21 19.5565 21C19.4712 21 19.4285 20.936 19.4285 20.808C19.4285 20.68 19.4712 20.616 19.5565 20.616C20.2392 20.616 20.9112 20.3387 21.5725 19.784C22.2552 19.2293 22.8738 18.3227 23.4285 17.064L30.3405 0.679998C30.3832 0.615999 30.4792 0.584 30.6285 0.584C30.8205 0.584 30.9485 0.626666 31.0125 0.712L37.4765 18.312C37.7325 18.9733 37.9565 19.4533 38.1485 19.752C38.3618 20.0507 38.6498 20.2747 39.0125 20.424C39.3752 20.552 39.9085 20.616 40.6125 20.616ZM27.4285 9.768H32.2285L29.9565 3.592L27.4285 9.768ZM41.9065 21C41.8638 21 41.8318 20.936 41.8105 20.808C41.8105 20.68 41.8425 20.616 41.9065 20.616C42.6532 20.616 43.1972 20.5627 43.5385 20.456C43.9012 20.3493 44.1465 20.1467 44.2745 19.848C44.4025 19.528 44.4665 19.048 44.4665 18.408V3.592C44.4665 2.952 44.4025 2.48267 44.2745 2.184C44.1678 1.88533 43.9332 1.68266 43.5705 1.576C43.2292 1.448 42.6958 1.384 41.9705 1.384C41.9065 1.384 41.8745 1.32 41.8745 1.192C41.8745 1.064 41.9065 1 41.9705 1L43.3785 1.032C44.2318 1.07467 44.9252 1.096 45.4585 1.096C46.0132 1.096 46.7172 1.07467 47.5705 1.032L49.1065 1C49.1492 1 49.1705 1.064 49.1705 1.192C49.1705 1.32 49.1492 1.384 49.1065 1.384C48.3385 1.384 47.7732 1.448 47.4105 1.576C47.0692 1.68266 46.8345 1.896 46.7065 2.216C46.5998 2.51467 46.5358 2.984 46.5145 3.624V18.28C46.5358 18.8987 46.5998 19.3573 46.7065 19.656C46.8345 19.9333 47.0585 20.1253 47.3785 20.232C47.6985 20.3387 48.2105 20.392 48.9145 20.392H52.4345C53.7572 20.392 54.7705 20.0293 55.4745 19.304C56.1785 18.5787 56.6798 17.5227 56.9785 16.136C56.9785 16.072 57.0318 16.04 57.1385 16.04C57.2025 16.04 57.2558 16.0507 57.2985 16.072C57.3625 16.0933 57.3945 16.1253 57.3945 16.168C57.2452 17.5547 57.1705 19.0053 57.1705 20.52C57.1705 20.6907 57.1278 20.8187 57.0425 20.904C56.9572 20.968 56.8185 21 56.6265 21H41.9065ZM59.0003 21C58.9576 21 58.9256 20.936 58.9043 20.808C58.9043 20.68 58.9363 20.616 59.0003 20.616C59.7469 20.616 60.2909 20.5627 60.6323 20.456C60.9949 20.3493 61.2403 20.1467 61.3683 19.848C61.4963 19.528 61.5603 19.048 61.5603 18.408V3.592C61.5603 2.952 61.4963 2.48267 61.3683 2.184C61.2616 1.88533 61.0269 1.68266 60.6643 1.576C60.3229 1.448 59.7896 1.384 59.0643 1.384C59.0003 1.384 58.9683 1.32 58.9683 1.192C58.9683 1.064 59.0003 1 59.0643 1L60.4723 1.032C61.3256 1.07467 62.0189 1.096 62.5523 1.096C63.1069 1.096 63.8109 1.07467 64.6643 1.032L66.2003 1C66.2429 1 66.2643 1.064 66.2643 1.192C66.2643 1.32 66.2429 1.384 66.2003 1.384C65.4323 1.384 64.8669 1.448 64.5043 1.576C64.1629 1.68266 63.9283 1.896 63.8003 2.216C63.6936 2.51467 63.6296 2.984 63.6083 3.624V18.28C63.6296 18.8987 63.6936 19.3573 63.8003 19.656C63.9283 19.9333 64.1523 20.1253 64.4723 20.232C64.7923 20.3387 65.3043 20.392 66.0083 20.392H69.5283C70.8509 20.392 71.8643 20.0293 72.5683 19.304C73.2723 18.5787 73.7736 17.5227 74.0723 16.136C74.0723 16.072 74.1256 16.04 74.2323 16.04C74.2963 16.04 74.3496 16.0507 74.3923 16.072C74.4563 16.0933 74.4883 16.1253 74.4883 16.168C74.3389 17.5547 74.2643 19.0053 74.2643 20.52C74.2643 20.6907 74.2216 20.8187 74.1363 20.904C74.0509 20.968 73.9123 21 73.7203 21H59.0003ZM92.336 1C92.4213 1 92.464 1.064 92.464 1.192C92.464 1.32 92.4213 1.384 92.336 1.384C90.8427 1.384 89.4987 2.38667 88.304 4.392L84.24 11.112V18.408C84.2613 19.0693 84.336 19.5493 84.464 19.848C84.592 20.1467 84.8267 20.3493 85.168 20.456C85.5093 20.5627 86.0747 20.616 86.864 20.616C86.9707 20.616 87.024 20.68 87.024 20.808C87.024 20.936 86.9707 21 86.864 21C86.224 21 85.7227 20.9893 85.36 20.968L83.248 20.936L81.04 20.968C80.6773 20.9893 80.176 21 79.536 21C79.4507 21 79.408 20.936 79.408 20.808C79.408 20.68 79.4507 20.616 79.536 20.616C80.3253 20.616 80.9013 20.5627 81.264 20.456C81.648 20.3493 81.904 20.1467 82.032 19.848C82.1813 19.528 82.2453 19.048 82.224 18.408L82.192 11.4L77.104 3.656C76.5707 2.824 76.0587 2.23733 75.568 1.896C75.0773 1.55467 74.5013 1.384 73.84 1.384C73.776 1.384 73.744 1.32 73.744 1.192C73.744 1.064 73.776 1 73.84 1L75.056 1.032C75.6107 1.07467 76.016 1.096 76.272 1.096C76.8907 1.096 77.6907 1.07467 78.672 1.032L80.24 1C80.3467 1 80.4 1.064 80.4 1.192C80.4 1.32 80.3467 1.384 80.24 1.384C79.664 1.384 79.248 1.42667 78.992 1.512C78.736 1.59733 78.608 1.74667 78.608 1.96C78.608 2.152 78.7147 2.38667 78.928 2.664L83.984 10.44L87.568 4.232C87.9307 3.592 88.112 3.03733 88.112 2.568C88.112 1.77867 87.568 1.384 86.48 1.384C86.3947 1.384 86.352 1.32 86.352 1.192C86.352 1.064 86.3947 1 86.48 1L87.92 1.032C88.688 1.07467 89.3707 1.096 89.968 1.096C90.3093 1.096 90.736 1.07467 91.248 1.032L92.336 1Z" fill="black"/>
</svg>
