<svg width="20" height="20" viewBox="0 0 20 20" fill="none" xmlns="http://www.w3.org/2000/svg">
<path d="M5.59844 0C2.51124 0 0 2.51356 0 5.60156V13.6016C0 16.6888 2.51356 19.2 5.60156 19.2H13.6016C16.6888 19.2 19.2 16.6864 19.2 13.5984V5.59844C19.2 2.51124 16.6864 0 13.5984 0H5.59844ZM15.2 3.2C15.6416 3.2 16 3.5584 16 4C16 4.4416 15.6416 4.8 15.2 4.8C14.7584 4.8 14.4 4.4416 14.4 4C14.4 3.5584 14.7584 3.2 15.2 3.2ZM9.6 4.8C12.2472 4.8 14.4 6.9528 14.4 9.6C14.4 12.2472 12.2472 14.4 9.6 14.4C6.9528 14.4 4.8 12.2472 4.8 9.6C4.8 6.9528 6.9528 4.8 9.6 4.8ZM9.6 6.4C8.75131 6.4 7.93737 6.73714 7.33726 7.33726C6.73714 7.93737 6.4 8.75131 6.4 9.6C6.4 10.4487 6.73714 11.2626 7.33726 11.8627C7.93737 12.4629 8.75131 12.8 9.6 12.8C10.4487 12.8 11.2626 12.4629 11.8627 11.8627C12.4629 11.2626 12.8 10.4487 12.8 9.6C12.8 8.75131 12.4629 7.93737 11.8627 7.33726C11.2626 6.73714 10.4487 6.4 9.6 6.4Z" fill="#333333"/>
</svg>
