<svg width="21" height="18" viewBox="0 0 21 18" fill="none" xmlns="http://www.w3.org/2000/svg">
<path d="M21.0008 2.14924C20.2352 2.48924 19.4128 2.71804 18.5496 2.82124C19.4312 2.29324 20.1072 1.45724 20.4256 0.460438C19.6016 0.949238 18.688 1.30444 17.7152 1.49644C16.9368 0.666837 15.828 0.148438 14.6008 0.148438C12.244 0.148438 10.3336 2.05964 10.3336 4.41564C10.3336 4.75004 10.372 5.07644 10.444 5.38764C6.89755 5.21004 3.75355 3.51084 1.64795 0.928437C1.28155 1.55884 1.07115 2.29164 1.07115 3.07484C1.07115 4.55484 1.82395 5.86124 2.96875 6.62604C2.26955 6.60364 1.61115 6.41164 1.03595 6.09244C1.03595 6.11084 1.03595 6.12764 1.03595 6.14604C1.03595 8.21404 2.50635 9.93884 4.45915 10.33C4.10155 10.4276 3.72395 10.4796 3.33435 10.4796C3.05995 10.4796 2.79195 10.4524 2.53195 10.4036C3.07515 12.0988 4.65115 13.3332 6.51835 13.3676C5.05835 14.5124 3.21835 15.1948 1.21835 15.1948C0.874351 15.1948 0.534351 15.1748 0.199951 15.1348C2.08875 16.3452 4.33115 17.0516 6.74155 17.0516C14.5912 17.0516 18.8824 10.5492 18.8824 4.91004C18.8824 4.72524 18.8784 4.54124 18.8704 4.35804C19.7048 3.75564 20.4288 3.00444 21.0008 2.14924Z" fill="#333333"/>
</svg>
