<svg width="21" height="19" viewBox="0 0 21 19" fill="none" xmlns="http://www.w3.org/2000/svg">
<path d="M10.4007 0.798828C7.05193 0.798828 2.70542 1.63789 2.70542 1.63789L2.69448 1.65039C1.16926 1.89432 0.000732422 3.20493 0.000732422 4.79883V9.59883V9.60039V14.3988V14.4004C0.00222079 15.1616 0.275028 15.8974 0.770171 16.4756C1.26531 17.0538 1.95036 17.4365 2.70229 17.5551L2.70542 17.5598C2.70542 17.5598 7.05193 18.4004 10.4007 18.4004C13.7495 18.4004 18.096 17.5598 18.096 17.5598L18.0976 17.5582C18.8504 17.4399 19.5362 17.0568 20.0317 16.478C20.5272 15.8991 20.7999 15.1624 20.8007 14.4004V14.3988V9.60039V9.59883V4.79883C20.7996 4.03733 20.527 3.30119 20.0318 2.72267C19.5366 2.14416 18.8514 1.76119 18.0992 1.64258L18.096 1.63789C18.096 1.63789 13.7495 0.798828 10.4007 0.798828ZM8.00073 5.91758L14.4007 9.59883L8.00073 13.2801V5.91758Z" fill="#333333"/>
</svg>
